{"title":"30 Rock Complete Series 720p WEB-DL DD5.1","uid":8847841,"size":103335065029,"categoryP":"video","categoryS":"hd___tv_shows","magnet":"?xt=urn:btih:a29c35edd495963914a338e26048e6ea0d6be416&amp;dn=30+Rock+Complete+Series+720p+WEB-DL+DD5.1&amp;tr=udp%3A%2F%2Ftracker.openbittorrent.com%3A80&amp;tr=udp%3A%2F%2Fopen.demonii.com%3A1337&amp;tr=udp%3A%2F%2Ftracker.coppersurfer.tk%3A6969&amp;tr=udp%3A%2F%2Fexodus.desync.com%3A6969","seeders":4,"leechers":12,"uploader":"christo7","files":136,"time":1377448009,"description":"Just put these together, not my rips. Some also have russian audio...\n\n\nMediainfo example:\n\nGeneral \nUnique ID : 189870365338621556489437147329667671115 (0x8ED7B3C46924220C84EAECBB81DE244B) \nComplete name : ..30 Rock S03E08 Flu Shot 720p WEB-DL DD5.1.mkv \nFormat : Matroska \nFormat version : Version 2 \nFile size : 705 MiB \nDuration : 21mn 14s \nOverall bit rate : 4 643 Kbps \nMovie name : denanet \nEncoded date : UTC 2012-07-16 08:48:49 \nWriting application : mkvmerge v5.7.0 ('The Whirlwind') built on Jul 8 2012 20:08:51 \nWriting library : libebml v1.2.3 + libmatroska v1.3.0 \n\nVideo \nID : 1 \nFormat : AVC \nFormat/Info : Advanced Video Codec \nFormat profile : &lt;a class=&quot;__cf_email__&quot; href=&quot;/cdn-cgi/l/email-protection&quot; data-cfemail=&quot;b2fadbd5daf2fe819c83&quot;&gt;[email&amp;#160;protected]&lt;/a&gt;&lt;script cf-hash='f9e31' type=&quot;text/javascript&quot;&gt;\n/* &lt;![CDATA[ */!function(){try{var t=&quot;currentScript&quot;in document?document.currentScript:function(){for(var t=document.getElementsByTagName(&quot;script&quot;),e=t.length;e--;)if(t[e].getAttribute(&quot;cf-hash&quot;))return t[e]}();if(t&amp;&amp;t.previousSibling){var e,r,n,i,c=t.previousSibling,a=c.getAttribute(&quot;data-cfemail&quot;);if(a){for(e=&quot;&quot;,r=parseInt(a.substr(0,2),16),n=2;a.length-n;n+=2)i=parseInt(a.substr(n,2),16)^r,e+=String.fromCharCode(i);e=document.createTextNode(e),c.parentNode.replaceChild(e,c)}}}catch(u){}}();/* ]]&gt; */&lt;/script&gt; \nFormat settings, CABAC : No \nFormat settings, ReFrames : 2 frames \nCodec ID : V_MPEG4/ISO/AVC \nDuration : 21mn 14s \nBit rate : 3 975 Kbps \nWidth : 1 280 pixels \nHeight : 720 pixels \nDisplay aspect ratio : 16:9 \nFrame rate mode : Constant \nFrame rate : 23.976 fps \nColor space : YUV \nChroma subsampling : 4:2:0 \nBit depth : 8 bits \nScan type : Progressive \nBits/(Pixel*Frame) : 0.180 \nStream size : 604 MiB (86%) \nDefault : Yes \nForced : No \nColor primaries : BT.709 \nTransfer characteristics : BT.709 \nMatrix coefficients : BT.709 \n\nAudio #1 \nID : 2 \nFormat : AC-3 \nFormat/Info : Audio Coding 3 \nMode extension : CM (complete main) \nFormat settings, Endianness : Big \nCodec ID : A_AC3 \nDuration : 21mn 14s \nBit rate mode : Constant \nBit rate : 192 Kbps \nChannel(s) : 2 channels \nChannel positions : Front: L R \nSampling rate : 48.0 KHz \nBit depth : 16 bits \nCompression mode : Lossy \nStream size : 29.2 MiB (4%) \nTitle : SET \nLanguage : Russian \nDefault : Yes \nForced : No \n\nAudio #2 \nID : 3 \nFormat : AC-3 \nFormat/Info : Audio Coding 3 \nMode extension : CM (complete main) \nFormat settings, Endianness : Big \nCodec ID : A_AC3 \nDuration : 21mn 14s \nBit rate mode : Constant \nBit rate : 384 Kbps \nChannel(s) : 6 channels \nChannel positions : Front: L C R, Side: L R, LFE \nSampling rate : 48.0 KHz \nBit depth : 16 bits \nCompression mode : Lossy \nStream size : 58.3 MiB (8%) \nTitle : DD 5.1 \nLanguage : English \nDefault : No \nForced : No ","torrent":{"xt":"urn:btih:a29c35edd495963914a338e26048e6ea0d6be416","amp;dn":"30+Rock+Complete+Series+720p+WEB-DL+DD5.1","amp;tr":["udp%3A%2F%2Ftracker.openbittorrent.com%3A80","udp%3A%2F%2Fopen.demonii.com%3A1337","udp%3A%2F%2Ftracker.coppersurfer.tk%3A6969","udp%3A%2F%2Fexodus.desync.com%3A6969"],"infoHash":"a29c35edd495963914a338e26048e6ea0d6be416","infoHashBuffer":{"type":"Buffer","data":[162,156,53,237,212,149,150,57,20,163,56,226,96,72,230,234,13,107,228,22]},"announce":[],"urlList":[]}}